{"title":"The Long Weekend (2005) - DVDRip - ENG","uid":4326243,"size":665370299,"categoryP":"video","categoryS":"movies","magnet":"?xt=urn:btih:f4ad5c6ead2c5971552b588bd4a36e05ced3618c&amp;dn=The+Long+Weekend+%282005%29+-+DVDRip+-+ENG&amp;tr=udp%3A%2F%2Ftracker.openbittorrent.com%3A80&amp;tr=udp%3A%2F%2Fopen.demonii.com%3A1337&amp;tr=udp%3A%2F%2Ftracker.coppersurfer.tk%3A6969&amp;tr=udp%3A%2F%2Fexodus.desync.com%3A6969","seeders":2,"leechers":0,"uploader":"206andy206","files":-1,"time":1217780885,"description":"User Rating: 5.0/10 \nRelease Date: 26 June 2006 (UK)\nGenre: Comedy\nhttp://uk.imdb.com/title/tt0385057/\n\nPlot: A comedy about two brothers, uptight Ed and playboy Cooper. Ed has a weekend to save his career, but Cooper has other plans for the weekend, to help his stressed out brother get lucky with the ladies.\n\n\nGeneral\nComplete name                    : The Long Weekend (2005) - DVDRip - ENG.avi\nFormat                           : AVI\nFormat/Info                      : Audio Video Interleave\nFile size                        : 635 MiB\nDuration                         : 1h 26mn\nOveral bit rate                  : 1025 Kbps\nWriting application              : VirtualDubMod 1.5.4.1 (build 2178/release)\nWriting library                  : VirtualDubMod build 2178/release\nIAS1                             : English\n\nVideo\nFormat                           : MPEG-4 Visual\nFormat profile                   : Streaming Video@L1\nFormat settings, BVOP            : Yes\nFormat settings, QPel            : No\nFormat settings, GMC             : No warppoints\nFormat settings, Matrix          : Default\nMuxing mode                      : Packet Bitstream\nCodec ID                         : XVID\nCodec ID/Hint                    : XviD\nDuration                         : 1h 26mn\nBit rate                         : 825 Kbps\nWidth                            : 672 pixels\nHeight                           : 368 pixels\nDisplay aspect ratio             : 16/9\nFrame rate                       : 25.000 fps\nResolution                       : 8 bits\nColorimetry                      : 4:2:0\nScan type                        : Progressive\nBits/(Pixel*Frame)               : 0.133\nStream size                      : 511 MiB (81%)\nWriting library                  : XviD 1.2.0.dev47 (UTC 2006-11-01)\n\nAudio\nFormat                           : MPEG Audio\nFormat version                   : Version 1\nFormat profile                   : Layer 3\nCodec ID                         : 55\nCodec ID/Hint                    : MP3\nDuration                         : 1h 26mn\nBit rate mode                    : Constant\nBit rate                         : 192 Kbps\nMinimum bit rate                 : 192 Kbps\nChannel(s)                       : 2 channels\nSampling rate                    : 48.0 KHz\nResolution                       : 16 bits\nStream size                      : 119 MiB (19%)\nWriting library                  : LAME3.97 \nEncoding settings                : CBR\n\n\n\nTrackers:\nhttp://www.torrent-downloads.to:5869/announce\nhttp://open.tracker.thepiratebay.se:80/announce\nhttp://tpb.tracker.thepiratebay.se:80/announce\nhttp://vip.tracker.thepiratebay.se/announce\n\nInfo Hash: F4AD5C6EAD2C5971552B588BD4A36E05CED3618C","torrent":{"xt":"urn:btih:f4ad5c6ead2c5971552b588bd4a36e05ced3618c","amp;dn":"The+Long+Weekend+%282005%29+-+DVDRip+-+ENG","amp;tr":["udp%3A%2F%2Ftracker.openbittorrent.com%3A80","udp%3A%2F%2Fopen.demonii.com%3A1337","udp%3A%2F%2Ftracker.coppersurfer.tk%3A6969","udp%3A%2F%2Fexodus.desync.com%3A6969"],"infoHash":"f4ad5c6ead2c5971552b588bd4a36e05ced3618c","infoHashBuffer":{"type":"Buffer","data":[244,173,92,110,173,44,89,113,85,43,88,139,212,163,110,5,206,211,97,140]},"announce":[],"urlList":[]}}